<svg width="900" height="600" viewBox="0 0 900 600" fill="none" xmlns="http://www.w3.org/2000/svg"><rect width="900" height="600" fill="#FAFAFA"/><rect x="0" y="0" width="900" height="182" fill="#FFD000"/><path d="M0 490c153-81 310-80 472 3 135 69 278 66 428-10v117H0V490Z" fill="#E9E9E4"/><rect x="169" y="143" width="231" height="360" rx="8" fill="#0067B1"/><rect x="426" y="214" width="275" height="289" rx="8" fill="#0C1620"/><g fill="#FAFAFA"><rect x="213" y="190" width="56" height="48" rx="4"/><rect x="301" y="190" width="56" height="48" rx="4"/><rect x="213" y="273" width="56" height="48" rx="4"/><rect x="301" y="273" width="56" height="48" rx="4"/><rect x="472" y="256" width="66" height="54" rx="4"/><rect x="585" y="256" width="66" height="54" rx="4"/><rect x="472" y="351" width="66" height="54" rx="4"/><rect x="585" y="351" width="66" height="54" rx="4"/></g><rect x="274" y="373" width="68" height="130" fill="#FFD000"/><rect x="539" y="373" width="60" height="130" fill="#FFD000"/><circle cx="751" cy="120" r="65" fill="#FAFAFA" fill-opacity=".6"/></svg>
